<svg xmlns="http://www.w3.org/2000/svg" viewBox="0 0 512 512">
  <!-- Background -->
  <rect width="512" height="512" rx="96" fill="#154010"/>
  <!-- Tea leaf shape -->
  <path d="M256 80
    C180 130 148 210 172 300
    C190 368 222 412 256 412
    C290 412 322 368 340 300
    C364 210 332 130 256 80Z"
    fill="#C8960A" opacity="0.92"/>
  <!-- Stem -->
  <line x1="256" y1="412" x2="256" y2="452"
    stroke="#C8960A" stroke-width="14" stroke-linecap="round" opacity="0.75"/>
  <!-- Midrib -->
  <line x1="256" y1="100" x2="256" y2="400"
    stroke="#154010" stroke-width="8" stroke-linecap="round" opacity="0.55"/>
  <!-- Veins -->
  <line x1="256" y1="190" x2="210" y2="230" stroke="#154010" stroke-width="5" stroke-linecap="round" opacity="0.4"/>
  <line x1="256" y1="250" x2="196" y2="285" stroke="#154010" stroke-width="5" stroke-linecap="round" opacity="0.4"/>
  <line x1="256" y1="310" x2="204" y2="340" stroke="#154010" stroke-width="5" stroke-linecap="round" opacity="0.4"/>
  <line x1="256" y1="190" x2="302" y2="230" stroke="#154010" stroke-width="5" stroke-linecap="round" opacity="0.4"/>
  <line x1="256" y1="250" x2="316" y2="285" stroke="#154010" stroke-width="5" stroke-linecap="round" opacity="0.4"/>
  <line x1="256" y1="310" x2="308" y2="340" stroke="#154010" stroke-width="5" stroke-linecap="round" opacity="0.4"/>
</svg>
